# xmcd
# 
# Track frame offsets:
#     182
#     19312
#     45425
#     61110
# 
# Disc length: 1035
# 
# Revision: 0
# Processed by: cddbd v1.5.2PL0 Copyright (c) Steve Scherf et al.
# Submitted via: fre:ac v1.0.17
# 
DISCID=28040904
DTITLE=Dinosaur Jr. - Goin Home
DYEAR=1993
DGENRE=
TTITLE0=Goin Home
TTITLE1=Quest (live)
TTITLE2=Kracked (live)
TTITLE3=Keeblin'
EXTD=
EXTT0=
EXTT1=
EXTT2=
EXTT3=
PLAYORDER=
